<svg width="64" height="64" xmlns="http://www.w3.org/2000/svg">

 <g>
  <title>background</title>
  <rect fill="none" id="canvas_background" height="602" width="802" y="-1" x="-1"/>
 </g>
 <g>
  <title>Layer 1</title>
  <g id="svg_1">
   <path fill="#ffffff" id="svg_2" d="m29.2,39c0.8,0.8 1.9,1.3 2.9,1.3c1.1,0 2.1,-0.5 2.9,-1.3l28.1,-26.5c1.1,-1.1 1.1,-2.7 0,-3.7s-2.7,-1.1 -3.7,0l-27,26l-27.8,-26.1c-1.1,-1.1 -2.7,-1.1 -3.7,0s-1.1,2.7 0,3.7l28.3,26.6z"/>
   <path fill="#ffffff" id="svg_3" d="m59.7,24.5l-27.6,26l-27.6,-26c-1.1,-1.1 -2.7,-1.1 -3.7,0s-1.1,2.7 0,3.7l28.4,26.5c0.8,0.8 1.9,1.3 2.9,1.3c1.1,0 2.1,-0.5 2.9,-1.3l28.1,-26.5c1.1,-1.1 1.1,-2.7 0,-3.7c-0.7,-1.1 -2.3,-1.1 -3.4,0z"/>
  </g>
 </g>
</svg>