<svg width="64" height="64" xmlns="http://www.w3.org/2000/svg">

 <g>
  <title>background</title>
  <rect fill="none" id="canvas_background" height="602" width="802" y="-1" x="-1"/>
 </g>
 <g>
  <title>Layer 1</title>
  <g id="svg_1">
   <path fill="#ffffff" id="svg_2" d="m19.1,14.1c-1.1,-1.1 -2.7,-1.1 -3.7,0l-14.2,14.7c-1.6,1.9 -1.6,4.5 0,6.1l14.1,14.7c0.5,0.5 1.3,0.8 1.9,0.8s1.3,-0.3 1.9,-0.8c1.1,-1.1 1.1,-2.7 0,-3.7l-13.6,-13.9l13.6,-14.1c1.1,-1.1 1.1,-2.7 0,-3.8z"/>
   <path fill="#ffffff" id="svg_3" d="m62.6,28.8l-14.2,-14.7c-1.1,-1.1 -2.7,-1.1 -3.7,0s-1.1,2.7 0,3.7l13.6,14.2l-13.6,14.1c-1.1,1.1 -1.1,2.7 0,3.7c0.5,0.5 1.1,0.8 1.9,0.8c0.8,0 1.3,-0.3 1.9,-0.8l14.1,-14.7c1.8,-1.8 1.8,-4.4 0,-6.3z"/>
   <path fill="#ffffff" id="svg_4" d="m38.3,14.4c-1.3,-0.5 -2.9,0.3 -3.5,1.6l-10.9,30.4c-0.5,1.3 0.3,2.9 1.6,3.5c0.3,0 0.5,0.3 0.8,0.3c1.1,0 2.1,-0.8 2.4,-1.9l11.2,-30.7c0.5,-1.3 -0.3,-2.9 -1.6,-3.2z"/>
  </g>
 </g>
</svg>