<svg width="64" height="64" xmlns="http://www.w3.org/2000/svg">

 <g>
  <title>background</title>
  <rect fill="none" id="canvas_background" height="602" width="802" y="-1" x="-1"/>
 </g>
 <g>
  <title>Layer 1</title>
  <path fill="#ffffff" id="svg_1" d="m59.3,0l-54.6,0c-2.6,0 -4.7,2.1 -4.7,4.6l0,54.8c0,2.5 2.1,4.6 4.7,4.6l54.5,0c2.6,0 4.7,-2.1 4.7,-4.6l0,-54.8c0.1,-2.5 -2,-4.6 -4.6,-4.6zm-40.3,54.5l-9.5,0l0,-30.5l9.5,0l0,30.5zm-4.8,-34.7c-3,0 -5.5,-2.5 -5.5,-5.5s2.5,-5.5 5.5,-5.5c3,0 5.5,2.5 5.5,5.5c0,3.1 -2.4,5.5 -5.5,5.5zm40.3,34.7l-9.5,0l0,-14.8c0,-3.5 -0.1,-8.1 -4.9,-8.1c-4.9,0 -5.7,3.9 -5.7,7.8l0,15.1l-9.5,0l0,-30.5l9.1,0l0,4.2l0.1,0c1.3,-2.4 4.4,-4.9 9,-4.9c9.6,0 11.4,6.3 11.4,14.6l0,16.6l0,0z"/>
 </g>
</svg>