<svg width="64" height="64" xmlns="http://www.w3.org/2000/svg">

 <g>
  <title>background</title>
  <rect fill="none" id="canvas_background" height="602" width="802" y="-1" x="-1"/>
 </g>
 <g>
  <title>Layer 1</title>
  <path fill="#ffffff" id="svg_1" d="m60,16.2c-4.3,-7.4 -11.7,-13 -20,-15.2c-5.6,-1.3 -10.7,-1.3 -15.7,0c-8.3,2.2 -15.8,7.8 -19.8,15.2c-3.2,5.1 -4.5,10.2 -4.5,15.8l0,0.8c0.3,5.9 1.9,11.5 5.1,16.5c5.1,8 13.3,13.3 22.7,14.4c1.3,0.3 2.6,0.3 4.2,0.3c1.3,0 2.7,0 4,-0.3c9.6,-1.1 17.9,-6.4 22.9,-14.7c3.2,-4.8 4.8,-10.7 5.1,-16.5l0,-0.5c0,-5.4 -1.3,-10.7 -4,-15.8zm-9.6,29.1c1.3,-3.5 2.1,-6.9 2.1,-10.7l5.9,0c-0.3,3.7 -1.6,7.5 -3.5,10.7l-4.5,0zm-41.6,0c-1.9,-3.2 -2.9,-6.9 -3.5,-10.7l5.6,0c0.3,3.7 1.1,7.2 2.7,10.7l-4.8,0zm4.3,-24c-1.1,2.7 -1.6,5.3 -1.9,8l-5.6,0c0.3,-2.7 1.1,-5.3 2.1,-8l5.4,0zm31.4,0c1.3,2.4 2.1,5.3 2.4,8l-12.2,0l0,-8l9.8,0zm-9.8,-5.3l0,-8.3c2.1,1.9 4.5,4.5 6.7,8.3l-6.7,0zm-5.4,-8.3l0,8.3l-7.2,0c2.4,-3.8 4.8,-6.4 7.2,-8.3zm0,13.6l0,8l-12.8,0c0.3,-2.7 1.1,-5.6 2.4,-8l10.4,0zm-12.8,13.3l12.8,0l0,10.7l-9.6,0c-1.8,-3.2 -2.9,-6.9 -3.2,-10.7zm12.8,16l0,5.9c-2.1,-1.6 -4.3,-3.5 -6.1,-5.9l6.1,0zm5.4,5.9l0,-5.9l6.7,0c-1.9,2.4 -4.3,4.3 -6.7,5.9zm0,-11.2l0,-10.7l12.5,0c-0.3,3.7 -1.1,7.5 -2.7,10.7l-9.8,0zm17.6,-16c-0.3,-2.7 -1.1,-5.3 -2.1,-8l6.1,0c1.1,2.7 1.9,5.3 2.1,8l-6.1,0zm1,-13.3l-5.6,0c-2.1,-3.5 -4.3,-6.7 -6.4,-9.1c4.8,1.9 9.1,5.1 12,9.1zm-31.2,-8.8c-2.1,2.4 -4.3,5.3 -6.4,8.8l-5.1,0c3,-3.8 7,-7 11.5,-8.8zm-9.3,43.4l3.7,0c1.3,2.1 2.9,4 4.5,5.6c-3.1,-1.3 -5.8,-3.2 -8.2,-5.6zm30.9,5.4c1.6,-1.6 2.9,-3.5 4,-5.3l3.2,0c-2.1,2.1 -4.5,3.9 -7.2,5.3z"/>
 </g>
</svg>